<svg width="187" height="61" viewBox="0 0 187 61" fill="none" xmlns="http://www.w3.org/2000/svg">
	<path
		d="M92.1781 10.0633C91.614 8.93643 90.883 8.79864 90.0245 8.70514C89.166 8.61165 86.1491 8.65593 85.1875 8.69038C84.2211 8.72975 84.1279 9.32518 84.1279 9.32518L72.3298 42.9155C72.3298 42.9155 74.8415 42.9057 76.3966 42.9008C77.9468 42.9008 78.9181 42.7236 79.5656 41.1538L82.5041 32.4635H93.2328C93.2328 32.4635 95.3864 38.841 96.088 40.9078C97.1181 43.4814 97.8589 42.7974 100.694 42.95C103.525 43.1025 104.903 42.6695 103.952 40.1943C102.892 37.532 92.7423 11.1902 92.1781 10.0633ZM81.2875 28.9302L83.6864 27.4736L87.6306 16.0521L91.8249 28.3988L81.2924 28.9302H81.2875Z"
		fill="#1A428A" />
	<path
		d="M127.17 24.147C120.533 21.4159 117.011 21.4159 117.82 17.3709C118.821 13.3357 123.53 14.064 125.983 15.8109C125.983 15.8109 127.44 16.8001 128.014 17.1101C128.294 17.2233 128.426 17.4398 129.29 17.1445C130.148 16.8542 131.414 16.0964 131.949 15.7371C132.488 15.3779 133.307 15.0531 132.778 14.2215C131.497 12.2088 129.491 10.7424 127.254 9.84677C125.321 9.07418 120.415 7.76521 115.289 10.3192C110.26 13.1143 109.951 17.3807 110.167 19.6198C110.314 22.4493 112.635 25.1952 115.461 26.4254C118.286 27.6557 119.998 28.3347 124.722 30.0374C126.459 30.6574 127.244 31.9959 127.146 33.4427C127.072 34.5105 126.528 35.662 125.291 36.3854C123.898 37.2023 120.935 37.4483 118.865 36.7102C117.648 36.41 114.95 34.8205 114.018 34.0184C113.091 33.2212 112.797 32.9014 112.164 32.9949C111.673 33.0638 109.476 35.0469 108.877 35.8589C108.573 36.223 108.563 36.6167 109.029 37.2515C109.412 37.7682 110.628 39.3921 113.003 40.7749C115.151 42.0297 117.781 42.9647 121.073 43.0828C124.668 43.2157 127.749 42.3053 130.119 41.016C133.111 39.3872 134.755 36.2821 134.705 33.3098C134.656 30.3425 133.793 26.8781 127.156 24.147H127.17Z"
		fill="#1A428A" />
	<path
		d="M175.447 24.147C168.81 21.4159 165.288 21.4159 166.097 17.3709C167.098 13.3357 171.807 14.064 174.26 15.8109C174.26 15.8109 175.717 16.8001 176.291 17.1101C176.571 17.2233 176.708 17.4398 177.566 17.1445C178.43 16.8542 179.691 16.0964 180.23 15.7371C180.77 15.3779 181.589 15.0531 181.059 14.2215C179.779 12.2088 177.772 10.7424 175.535 9.84677C173.603 9.07418 168.697 7.76521 163.571 10.3192C158.542 13.1143 158.233 17.3807 158.449 19.6198C158.591 22.4493 160.917 25.1952 163.742 26.4254C166.568 27.6557 168.28 28.3347 173.009 30.0374C174.741 30.6574 175.531 31.9959 175.432 33.4427C175.354 34.5105 174.814 35.662 173.578 36.3854C172.185 37.2023 169.227 37.4483 167.152 36.7102C165.935 36.41 163.237 34.8205 162.31 34.0184C161.383 33.2212 161.088 32.9014 160.455 32.9949C159.965 33.0638 157.767 35.0469 157.169 35.8589C156.86 36.223 156.855 36.6167 157.321 37.2515C157.698 37.7682 158.92 39.3921 161.294 40.7749C163.448 42.0297 166.072 42.9647 169.364 43.0828C172.96 43.2157 176.041 42.3053 178.41 41.016C181.403 39.3872 183.046 36.2821 182.997 33.3098C182.948 30.3425 182.085 26.8781 175.447 24.147Z"
		fill="#1A428A" />
	<path
		d="M149.349 10.5997C149.349 8.65098 147.666 8.71987 147.666 8.71987H142.589V17.0363H146.033L142.589 19.295V42.8368C142.589 42.8368 144.492 42.8368 147.029 42.8368C149.565 42.8368 149.349 40.9324 149.349 40.9324V10.5997Z"
		fill="#1A428A" />
	<path
		d="M54.5418 40.8143C35.7923 27.4343 34.8652 6.36278 34.8553 6.15118C34.7327 2.76065 31.9904 0 28.738 0C27.0897 0 25.5346 0.649564 24.3572 1.82075C23.1847 2.99193 22.5421 4.53711 22.5421 6.17578C22.5323 6.41691 21.3696 27.9362 2.01183 41.5574C0.908054 42.3349 0.206542 43.57 0.0397488 45.0365C-0.16629 46.8424 0.437109 48.7272 1.65372 50.0804C2.81636 51.3746 4.44014 52.1177 6.10807 52.1177C7.0794 52.1177 8.05072 51.8667 8.91902 51.3894C9.18884 51.2418 15.6055 47.5461 28.3553 21.0666L28.8017 20.1414L38.0391 36.7594C32.6282 36.0754 28.6987 36.1738 28.6987 36.1738C25.7112 36.2575 23.2828 38.7623 23.2878 41.7591C23.2878 44.7855 25.7504 47.2903 28.7772 47.3345C39.6776 47.428 47.409 50.9859 47.7327 51.1384C48.3754 51.4091 49.0965 51.5518 49.8667 51.5518C51.5739 51.5518 53.3203 50.8186 54.5467 49.5883C56.9554 47.1623 56.9554 43.2256 54.5369 40.8045L54.5418 40.8143Z"
		fill="#F7BE00" />
	<path
		d="M70.8826 54.5289V55.3507H67.9294V56.7089H70.5441V57.5307H67.9294V58.9381H70.9169V59.7599H67.012V54.5289H70.8826Z"
		fill="#1A428A" />
	<path d="M71.6626 54.3075H72.5603V59.7648H71.6626V54.3075Z" fill="#1A428A" />
	<path
		d="M73.2274 57.8014V57.7866C73.2274 56.6597 74.0222 55.7346 75.1505 55.7346C76.4014 55.7346 77.0392 56.7188 77.0392 57.8555C77.0392 57.9392 77.0294 58.0179 77.0245 58.1114H74.135C74.2331 58.756 74.6844 59.1153 75.2682 59.1153C75.7097 59.1153 76.0237 58.9529 76.3327 58.6429L76.8626 59.1153C76.4897 59.5631 75.9746 59.8534 75.2535 59.8534C74.1154 59.8534 73.2373 59.0267 73.2373 57.8063L73.2274 57.8014ZM76.1414 57.511C76.0826 56.9304 75.7392 56.4727 75.1407 56.4727C74.5912 56.4727 74.2037 56.8959 74.1203 57.511H76.1414Z"
		fill="#1A428A" />
	<path
		d="M77.6475 54.3075H78.5452V57.5652L80.1788 55.8133H81.2777L79.7128 57.4224L81.3316 59.7599H80.2867L79.0996 58.0572L78.5452 58.633V59.7599H77.6475V54.3026V54.3075Z"
		fill="#1A428A" />
	<path
		d="M81.8026 56.5957H81.3022V55.8182H81.8026V54.7356H82.7052V55.8182H83.7648V56.5957H82.7052V58.5346C82.7052 58.884 82.8867 59.0267 83.1909 59.0267C83.392 59.0267 83.5686 58.9824 83.7501 58.8889V59.632C83.5244 59.7599 83.2743 59.8337 82.9358 59.8337C82.2735 59.8337 81.8026 59.5434 81.8026 58.6773V56.5957Z"
		fill="#1A428A" />
	<path
		d="M84.3731 55.8182H85.2709V56.704C85.5162 56.1135 85.9724 55.7099 86.669 55.7395V56.6941H86.615C85.8252 56.6941 85.2709 57.2108 85.2709 58.259V59.7599H84.3731V55.8133V55.8182Z"
		fill="#1A428A" />
	<path
		d="M86.8064 57.8112V57.7965C86.8064 56.6646 87.6993 55.7346 88.911 55.7346C90.1227 55.7346 91.0057 56.6548 91.0057 57.7817V57.7965C91.0057 58.9184 90.1129 59.8485 88.8963 59.8485C87.6797 59.8485 86.8114 58.9283 86.8114 57.8112H86.8064ZM90.0982 57.8112V57.7965C90.0982 57.1026 89.5978 56.5269 88.8914 56.5269C88.185 56.5269 87.7042 57.0928 87.7042 57.7817V57.7965C87.7042 58.4854 88.2046 59.0661 88.9061 59.0661C89.6076 59.0661 90.0982 58.4903 90.0982 57.8112Z"
		fill="#1A428A" />
	<path
		d="M91.6188 55.8182H92.5215V56.4334C92.7766 56.0594 93.1396 55.7395 93.7528 55.7395C94.6358 55.7395 95.1509 56.3349 95.1509 57.2552V59.7648H94.2483V57.5258C94.2483 56.9107 93.9441 56.5613 93.4045 56.5613C92.8649 56.5613 92.5166 56.9255 92.5166 57.5406V59.7698H91.6139V55.8232L91.6188 55.8182Z"
		fill="#1A428A" />
	<path
		d="M95.9604 54.3518H96.9268V55.2129H95.9604V54.3518ZM95.9948 55.8182H96.8974V59.7648H95.9948V55.8182Z"
		fill="#1A428A" />
	<path
		d="M97.7804 54.3075H98.6781V57.5652L100.307 55.8133H101.406L99.8408 57.4224L101.46 59.7599H100.415L99.2276 58.0572L98.6732 58.633V59.7599H97.7755V54.3026L97.7804 54.3075Z"
		fill="#1A428A" />
	<path
		d="M103.388 55.8182H104.359L105.418 58.7166L106.483 55.8182H107.43L105.821 59.7943H105.006L103.388 55.8182Z"
		fill="#1A428A" />
	<path
		d="M107.459 57.7866C107.459 56.6597 108.259 55.7346 109.382 55.7346C110.638 55.7346 111.271 56.7188 111.271 57.8555C111.271 57.9392 111.261 58.0179 111.256 58.1114H108.367C108.465 58.756 108.916 59.1153 109.5 59.1153C109.942 59.1153 110.251 58.9529 110.565 58.6429L111.089 59.1153C110.717 59.5631 110.206 59.8534 109.48 59.8534C108.337 59.8534 107.459 59.0267 107.459 57.8063V57.7866ZM110.373 57.511C110.314 56.9304 109.971 56.4727 109.372 56.4727C108.818 56.4727 108.431 56.8959 108.352 57.511H110.373Z"
		fill="#1A428A" />
	<path
		d="M113.92 54.5289H116.26C116.854 54.5289 117.325 54.6913 117.624 54.9915C117.854 55.2228 117.977 55.5082 117.977 55.8576V55.8723C117.977 56.5022 117.619 56.8368 117.231 57.0386C117.845 57.2453 118.267 57.5996 118.267 58.3082V58.323C118.267 59.2579 117.501 59.7599 116.339 59.7599H113.925V54.5289H113.92ZM116.079 56.7335C116.667 56.7335 117.06 56.5022 117.06 56.0249V56.0101C117.06 55.5968 116.736 55.3458 116.142 55.3458H114.823V56.7335H116.079ZM116.344 58.9479C116.971 58.9479 117.349 58.7019 117.349 58.2295V58.2147C117.349 57.7718 117.001 57.511 116.275 57.511H114.823V58.9479H116.344Z"
		fill="#1A428A" />
	<path
		d="M118.919 54.3518H119.89V55.2129H118.919V54.3518ZM118.953 55.8182H119.856V59.7648H118.953V55.8182Z"
		fill="#1A428A" />
	<path d="M120.788 54.3075H121.691V59.7648H120.788V54.3075Z" fill="#1A428A" />
	<path
		d="M122.588 54.3518H123.56V55.2129H122.588V54.3518ZM122.623 55.8182H123.525V59.7648H122.623V55.8182Z"
		fill="#1A428A" />
	<path
		d="M124.732 60.6654L125.321 59.7993C124.889 59.7255 124.448 59.5385 124.085 59.2481L124.487 58.633C124.909 58.9529 125.375 59.1153 125.777 59.1153C126.179 59.1153 126.385 58.9529 126.385 58.6921V58.6773C126.385 58.3722 125.968 58.2689 125.507 58.1262C124.928 57.9589 124.281 57.7227 124.281 56.9648V56.9501C124.281 56.2021 124.899 55.7444 125.684 55.7444C126.175 55.7444 126.714 55.9167 127.131 56.1922L126.773 56.8369C126.39 56.6056 125.988 56.4629 125.659 56.4629C125.311 56.4629 125.11 56.6253 125.11 56.8615V56.8762C125.11 57.1617 125.537 57.2798 125.998 57.4274C126.572 57.6095 127.219 57.8703 127.219 58.5789V58.5937C127.219 59.3318 126.714 59.7402 126.027 59.819L125.527 61L124.737 60.6654H124.732Z"
		fill="#1A428A" />
	<path
		d="M127.857 54.3518H128.824V55.2129H127.857V54.3518ZM127.896 55.8182H128.799V59.7648H127.896V55.8182Z"
		fill="#1A428A" />
	<path
		d="M130.58 55.8182V56.4137C130.835 56.0594 131.178 55.7346 131.782 55.7346C132.351 55.7346 132.743 56.0101 132.949 56.4284C133.268 56.0101 133.685 55.7346 134.284 55.7346C135.142 55.7346 135.662 56.2759 135.662 57.2404V59.7599H134.759V57.5209C134.759 56.891 134.47 56.5564 133.965 56.5564C133.459 56.5564 133.121 56.8959 133.121 57.5356V59.7648H132.218V57.516C132.218 56.9008 131.919 56.5613 131.419 56.5613C130.918 56.5613 130.575 56.9353 130.575 57.5455V59.7648H129.672V55.8182H130.58Z"
		fill="#1A428A" />
	<path
		d="M138.154 59.0021L138.708 58.3427C139.209 58.7757 139.704 59.0218 140.357 59.0218C140.921 59.0218 141.284 58.761 141.284 58.3624V58.3476C141.284 57.9736 141.073 57.7719 140.107 57.5504C138.998 57.2798 138.37 56.9501 138.37 55.9856V55.9708C138.37 55.0752 139.116 54.4552 140.151 54.4552C140.911 54.4552 141.515 54.6913 142.044 55.1146L141.554 55.8084C141.083 55.459 140.612 55.2671 140.136 55.2671C139.601 55.2671 139.287 55.5427 139.287 55.8871V55.9019C139.287 56.3054 139.523 56.4875 140.524 56.7237C141.627 56.9943 142.201 57.388 142.201 58.259V58.2738C142.201 59.2531 141.431 59.8337 140.337 59.8337C139.538 59.8337 138.787 59.5582 138.159 58.9972L138.154 59.0021Z"
		fill="#1A428A" />
	<path
		d="M142.888 54.3518H143.859V55.2129H142.888V54.3518ZM142.927 55.8182H143.83V59.7648H142.927V55.8182Z"
		fill="#1A428A" />
	<path
		d="M144.389 59.2481L144.792 58.633C145.213 58.9529 145.679 59.1153 146.082 59.1153C146.484 59.1153 146.695 58.9529 146.695 58.6921V58.6773C146.695 58.3722 146.278 58.2689 145.817 58.1262C145.238 57.9589 144.59 57.7227 144.59 56.9648V56.9501C144.59 56.2021 145.208 55.7444 145.988 55.7444C146.479 55.7444 147.019 55.9167 147.436 56.1922L147.078 56.8369C146.695 56.6056 146.293 56.4629 145.969 56.4629C145.621 56.4629 145.415 56.6253 145.415 56.8615V56.8762C145.415 57.1617 145.841 57.2798 146.302 57.4274C146.876 57.6095 147.524 57.8703 147.524 58.5789V58.5937C147.524 59.4253 146.886 59.8337 146.067 59.8337C145.508 59.8337 144.89 59.632 144.399 59.2432L144.389 59.2481Z"
		fill="#1A428A" />
	<path
		d="M148.25 56.5957H147.755V55.8182H148.25V54.7356H149.153V55.8182H150.212V56.5957H149.153V58.5346C149.153 58.884 149.334 59.0267 149.638 59.0267C149.839 59.0267 150.016 58.9824 150.198 58.8889V59.632C149.972 59.7599 149.722 59.8337 149.383 59.8337C148.721 59.8337 148.25 59.5434 148.25 58.6773V56.5957Z"
		fill="#1A428A" />
	<path
		d="M150.497 57.8014V57.7866C150.497 56.6597 151.296 55.7346 152.42 55.7346C153.671 55.7346 154.308 56.7188 154.308 57.8555C154.308 57.9392 154.299 58.0179 154.294 58.1114H151.404C151.502 58.756 151.954 59.1153 152.538 59.1153C152.979 59.1153 153.288 58.9529 153.602 58.6429L154.132 59.1153C153.759 59.5631 153.244 59.8534 152.523 59.8534C151.385 59.8534 150.502 59.0267 150.502 57.8063L150.497 57.8014ZM153.411 57.511C153.352 56.9304 153.008 56.4727 152.41 56.4727C151.861 56.4727 151.473 56.8959 151.39 57.511H153.411Z"
		fill="#1A428A" />
	<path
		d="M155.815 55.8182V56.4137C156.07 56.0594 156.413 55.7346 157.016 55.7346C157.581 55.7346 157.978 56.0101 158.184 56.4284C158.503 56.0101 158.925 55.7346 159.518 55.7346C160.377 55.7346 160.897 56.2759 160.897 57.2404V59.7599H159.999V57.5209C159.999 56.891 159.71 56.5564 159.199 56.5564C158.689 56.5564 158.356 56.8959 158.356 57.5356V59.7648H157.453V57.516C157.453 56.9008 157.154 56.5613 156.653 56.5613C156.153 56.5613 155.81 56.9353 155.81 57.5455V59.7648H154.912V55.8182H155.815Z"
		fill="#1A428A" />
	<path d="M161.755 54.3075H162.653V59.7648H161.755V54.3075Z" fill="#1A428A" />
	<path
		d="M163.32 57.8014V57.7866C163.32 56.6597 164.12 55.7346 165.243 55.7346C166.494 55.7346 167.127 56.7188 167.127 57.8555C167.127 57.9392 167.117 58.0179 167.112 58.1114H164.223C164.321 58.756 164.777 59.1153 165.356 59.1153C165.798 59.1153 166.112 58.9529 166.426 58.6429L166.955 59.1153C166.583 59.5631 166.067 59.8534 165.346 59.8534C164.208 59.8534 163.325 59.0267 163.325 57.8063L163.32 57.8014ZM166.234 57.511C166.175 56.9304 165.832 56.4727 165.238 56.4727C164.689 56.4727 164.297 56.8959 164.218 57.511H166.239H166.234Z"
		fill="#1A428A" />
	<path
		d="M167.74 55.8182H168.643V56.704C168.888 56.1135 169.344 55.7099 170.036 55.7395V56.6941H169.982C169.192 56.6941 168.643 57.2108 168.643 58.259V59.7599H167.74V55.8133V55.8182Z"
		fill="#1A428A" />
	<path
		d="M170.537 54.3518H171.508V55.2129H170.537V54.3518ZM170.576 55.8182H171.478V59.7648H170.576V55.8182Z"
		fill="#1A428A" />
	<path
		d="M176.252 54.4945H177.1L179.396 59.7648H178.43L177.9 58.5001H175.432L174.893 59.7648H173.956L176.252 54.4945ZM177.561 57.6882L176.659 55.5968L175.761 57.6882H177.561Z"
		fill="#1A428A" />
	<path d="M179.828 58.7413H180.819V59.7648H179.828V58.7413Z" fill="#1A428A" />
	<path
		d="M182.526 60.6654L183.11 59.8042C182.467 59.7304 181.864 59.4597 181.349 58.9972L181.898 58.3378C182.398 58.7708 182.899 59.0169 183.546 59.0169C184.111 59.0169 184.474 58.756 184.474 58.3574V58.3427C184.474 57.9687 184.263 57.7669 183.296 57.5455C182.188 57.2748 181.56 56.9451 181.56 55.9806V55.9659C181.56 55.0703 182.305 54.4502 183.34 54.4502C184.101 54.4502 184.704 54.6864 185.234 55.1096L184.743 55.8035C184.272 55.4541 183.801 55.2622 183.326 55.2622C182.786 55.2622 182.477 55.5377 182.477 55.8822V55.897C182.477 56.3005 182.712 56.4826 183.713 56.7188C184.817 56.9894 185.391 57.3831 185.391 58.2541V58.2689C185.391 59.1596 184.758 59.7206 183.816 59.814L183.321 60.9951L182.531 60.6604L182.526 60.6654Z"
		fill="#1A428A" />
	<path d="M186.009 58.7413H187V59.7648H186.009V58.7413Z" fill="#1A428A" />
</svg>